<svg width="54" height="31" viewBox="0 0 54 31" fill="none" xmlns="http://www.w3.org/2000/svg">
<path d="M0.162656 6V0.839999H9.80266V30H4.04266V6H0.162656ZM27.9861 30.28C26.9728 30.28 26.1328 29.9733 25.4661 29.36C24.8261 28.72 24.5061 27.9333 24.5061 27C24.5061 26.0667 24.8261 25.2933 25.4661 24.68C26.1328 24.04 26.9728 23.72 27.9861 23.72C28.9728 23.72 29.7861 24.04 30.4261 24.68C31.0661 25.2933 31.3861 26.0667 31.3861 27C31.3861 27.9333 31.0661 28.72 30.4261 29.36C29.7861 29.9733 28.9728 30.28 27.9861 30.28ZM27.9861 13.72C26.9728 13.72 26.1328 13.4133 25.4661 12.8C24.8261 12.16 24.5061 11.3733 24.5061 10.44C24.5061 9.50667 24.8261 8.73333 25.4661 8.12C26.1328 7.48 26.9728 7.16 27.9861 7.16C28.9728 7.16 29.7861 7.48 30.4261 8.12C31.0661 8.73333 31.3861 9.50667 31.3861 10.44C31.3861 11.3733 31.0661 12.16 30.4261 12.8C29.7861 13.4133 28.9728 13.72 27.9861 13.72ZM44.2252 6V0.839999H53.8652V30H48.1052V6H44.2252Z" fill="#387ADF"/>
</svg>
