<svg width="70" height="27" viewBox="0 0 70 27" fill="none" xmlns="http://www.w3.org/2000/svg">
<path d="M3.96 7.384C2.85067 7.384 1.95467 7.08533 1.272 6.488C0.610667 5.86933 0.28 5.10133 0.28 4.184C0.28 3.24533 0.610667 2.46667 1.272 1.848C1.95467 1.22933 2.85067 0.919998 3.96 0.919998C5.048 0.919998 5.92267 1.22933 6.584 1.848C7.26667 2.46667 7.608 3.24533 7.608 4.184C7.608 5.10133 7.26667 5.86933 6.584 6.488C5.92267 7.08533 5.048 7.384 3.96 7.384ZM7.064 9.048V27H0.792V9.048H7.064Z" fill="#060C16"/>
<path d="M31.5318 27H25.2598L16.9078 14.392V27H10.6358V4.44H16.9078L25.2598 17.208V4.44H31.5318V27ZM41.3765 9.464V13.144H48.5765V17.912H41.3765V21.976H49.5365V27H35.1045V4.44H49.5365V9.464H41.3765ZM69.6278 4.44V9.432H63.6118V27H57.3398V9.432H51.3878V4.44H69.6278Z" fill="#387ADF"/>
</svg>
